<?xml version="1.0" encoding="UTF-8"?>
<svg id="Layer_1" data-name="Layer 1" xmlns="http://www.w3.org/2000/svg" viewBox="0 0 1602.69 2132.33">
  <defs>
    <style>
      .cls-1 {
        fill: #fff;
      }

      .cls-1, .cls-2, .cls-3 {
        fill-rule: evenodd;
      }

      .cls-3 {
        stroke: #fff;
        stroke-miterlimit: 10;
      }
    </style>
  </defs>
  <path class="cls-1" d="M1564.1,39.23c-26.15-26.16-56.9-39.23-93.5-39.23H132.72c-36.61,0-68,13.07-93.5,39.23C13.06,64.73,0,96.12,0,132.73v1258.09c0,36.6,13.07,67.99,39.22,93.5,25.51,26.17,56.9,38.59,93.5,38.59h1337.88c36.6,0,67.35-12.41,93.5-38.59,26.17-25.51,38.59-56.9,38.59-93.5V132.75c0-36.63-12.41-68.01-38.59-93.51h0Z"/>
  <path class="cls-2" d="M1560.85,132.75c0-24.85-9.14-45.77-26.8-64.08-17.02-17.65-38.59-26.16-63.44-26.16H132.72c-25.5,0-46.42,8.51-64.07,26.16-17.65,18.31-26.16,39.23-26.16,64.08v1258.09c0,24.85,8.51,46.41,26.16,64.08,17.65,17.65,38.59,26.15,64.07,26.15h1337.88c24.85,0,46.41-8.48,63.44-26.15,17.65-17.68,26.8-39.23,26.8-64.08V132.75h.01Z"/>
  <path class="cls-1" d="M1504.61,98.73c-9.81-9.14-20.92-13.72-33.99-13.72H132.72c-13.07,0-24.85,4.58-33.99,13.72-9.16,9.17-14.38,20.93-14.38,34.02v1258.09c0,13.07,5.23,24.85,14.38,33.99,9.16,9.17,20.92,13.73,33.99,13.73h1337.88c13.07,0,24.19-4.57,33.99-13.73,9.14-9.14,13.74-20.92,13.74-33.99V132.75c0-13.09-4.58-24.85-13.72-34.02h0Z"/>
  <path class="cls-2" d="M1420.25,612.7h-458.38l-142.56-432.88-145.16,432.88H211.85l377.95,266.13-141.24,433.55,368.8-264.18,375.35,270.69-138.62-444.63,366.18-261.56h0Z"/>
  <path class="cls-1" d="M1268.53,655.86h-343.28l-106.57-324.33-108.56,324.33h-346.56l282.48,199.44-105.28,324.33,276.59-197.48,280.52,202.72-103.33-332.84,273.99-196.17Z"/>
  <path class="cls-3" d="M950.1,842.22l207.28-147.79h-258.94l-80.43-244.54-81.74,244.54h-261.56l213.17,150.41-79.13,244.56,207.93-149.1,211.87,153.03-78.47-251.11h0Z"/>
  <path class="cls-1" d="M132.72,1563.48c-36.61,0-68,13.07-93.5,39.21-26.16,25.51-39.22,56.9-39.22,93.5v304.08c0,35.97,13.07,67.35,39.22,92.86,25.51,26.15,56.9,39.21,93.5,39.21h1337.88c36.6,0,67.35-13.07,93.5-39.21,26.17-25.51,38.59-56.9,38.59-92.86v-304.08c0-36.6-12.41-67.99-38.59-93.5-26.15-26.15-56.9-39.21-93.5-39.21H132.72Z"/>
  <path class="cls-2" d="M68.65,1632.13c-17.65,17.65-26.16,39.23-26.16,64.06v304.08c0,24.85,8.51,45.77,26.16,63.44s38.59,26.17,64.07,26.17h1337.88c24.85,0,46.41-8.51,63.44-26.17,17.65-17.65,26.8-38.59,26.8-63.44v-304.08c0-24.82-9.14-46.41-26.8-64.06-17.02-17.65-38.59-26.17-63.44-26.17H132.72c-25.5,0-46.42,8.51-64.07,26.17Z"/>
  <path class="cls-1" d="M132.72,1648.46c-13.07,0-24.85,4.59-33.99,13.74-9.16,9.17-14.38,20.92-14.38,33.99v304.08c0,13.07,5.23,24.19,14.38,33.36,9.16,9.81,20.92,14.36,33.99,14.36h1337.88c13.07,0,24.19-4.57,33.99-14.36,9.14-9.17,13.74-20.28,13.74-33.36v-304.08c0-13.07-4.59-24.82-13.74-33.99-9.81-9.14-20.92-13.74-33.99-13.74H132.72Z"/>
  <path class="cls-2" d="M1021.38,1827.63v-68.65l-40.56-37.92h-103.97v262.87h60.17v-105.28h25.51v105.28h58.84v-105.28l-30.73-25.51,30.73-25.51h0ZM181.77,1721.06v224.29l40.54,38.59h68l39.23-38.59v-224.29h-60.82v213.17h-26.16v-213.17h-60.8ZM962.54,1770.1v59.51h-25.51v-59.51h25.51ZM1240.42,1721.06h-71.26l-19.64,126.86h-5.21l-21.58-126.86h-70.62v262.87h54.91v-166.75h2.63l25.49,166.75h22.24l25.51-166.75h2.61v166.75h54.91v-262.87h0ZM1347.68,1815.88h-.66l-21.58-94.82h-60.17l51.65,152.34v110.52h60.82v-110.52l52.33-152.34h-60.19l-22.19,94.82h0ZM410.62,1983.93v-51.02h-60.8v51.02h60.8ZM602.87,1932.91v51.02h60.15v-51.02h-60.15ZM581.95,1758.99l-42.5-37.92h-64.08l-39.23,37.92v79.12l41.85,37.92,43.16,3.27v54.94h-24.85v-34.66h-60.17v45.77l39.23,38.59h66.7l39.89-38.59v-79.79l-41.2-37.92-44.46-3.93v-53.6h24.85v35.32h60.82v-46.43h-.01,0ZM813.44,1721.06h-87.62l-36.63,262.87h58.86l5.23-49.04h34.66l5.24,49.04h58.84l-38.57-262.87h0ZM757.2,1885.84l9.16-109.21h5.89l11.12,109.21h-26.16Z"/>
</svg>