<svg xmlns="http://www.w3.org/2000/svg" viewBox="0 0 262 60" fill="none" preserveAspectRatio="xMidYMid meet">
  <path d="M0 49.03V59.8H19.94C36.46 59.8 49.86 46.41 49.86 29.89C49.86 13.39 36.46 0 19.94 0H0V26.07L13.36 10.77H33.42L17.51 28.97L33.48 49.02H15.01L7.87 40.06L0.01 49.03H0Z" fill="#FFFFFF"/>
  <path d="M81.05 10.76C95.88 10.76 102.21 19.89 102.21 29.18C102.21 40.29 94.69 49.04 82.32 49.04H67.24C64.88 49.04 64.04 48.59 64.04 47.28C64.04 44.01 67.75 46.42 67.75 38.87V20.94C67.75 13.39 64.04 15.80 64.04 12.53C64.04 11.21 64.88 10.77 67.24 10.77H81.05V10.76ZM92.91 32.59C92.91 22.24 87.26 14.32 79.66 14.32C77.54 14.32 76.73 14.71 76.73 16.72V41.99C76.73 44.01 77.33 45.37 81.65 45.37C89.22 45.37 92.93 40.46 92.93 32.60H92.91V32.59Z" fill="#FFFFFF"/>
  <path d="M131.74 20.99L140.77 40.67C143.12 45.59 145.65 44.57 145.65 47.32C145.65 48.62 144.92 49.04 142.56 49.04H133.04C130.68 49.04 129.86 48.62 129.86 47.32C129.86 45.17 133.05 44.78 131.48 41.29L125.13 27.18L117.97 33.90V39.31C117.97 45.99 121.68 44.36 121.68 47.29C121.68 48.59 121.05 49.03 118.50 49.03H108.51C106.15 49.03 105.32 48.59 105.32 47.29C105.32 44.36 109.10 45.99 109.10 39.31V20.51C109.10 13.84 105.42 15.47 105.42 12.54C105.42 11.24 106.15 10.80 108.71 10.80H118.70C121.05 10.80 121.88 11.24 121.88 12.54C121.88 15.47 117.97 13.84 117.97 20.51V28.31L129.28 17.78C132.60 14.79 128.37 14.62 128.37 12.54C128.37 11.24 129.10 10.80 130.79 10.80H138.38C140.53 10.80 141.68 11.24 141.68 12.54C141.68 15.11 139.36 13.92 135.21 17.78L131.74 21.00V20.99Z" fill="#FFFFFF"/>
  <path d="M185.49 39.52C185.38 42.76 184.99 45.00 184.55 46.58C184.11 48.31 183.24 49.04 179.99 49.04H159.70C157.34 49.04 156.51 48.60 156.51 47.30C156.51 44.04 160.22 46.45 160.22 38.90V20.51C160.51 13.84 156.67 15.47 156.67 12.54C156.67 11.24 157.34 10.80 159.86 10.80H169.85C172.21 10.80 173.04 11.24 173.04 12.54C173.04 15.47 169.13 13.84 169.13 20.51V42.65C169.13 44.35 170.01 45.12 173.10 45.12L175.14 45.07C178.35 45.07 179.64 42.76 181.48 38.78C182.46 36.91 183.37 36.47 184.55 36.72C185.87 37.04 186.00 37.83 185.95 39.55H185.49V39.52Z" fill="#FFFFFF"/>
  <path d="M218.13 45.47C218.13 47.55 214.75 49.47 212.07 49.47C209.71 49.47 208.03 48.34 206.98 45.52C204.33 48.40 200.69 49.47 197.42 49.47C191.72 49.47 187.72 46.14 187.72 41.59C187.72 36.40 192.20 32.52 200.40 32.52C201.68 32.52 202.74 32.65 204.27 32.82C202.70 29.86 201.55 27.33 198.09 27.33C195.96 27.33 193.69 28.37 192.09 29.35C190.81 30.02 189.53 29.19 190.49 27.63C191.91 25.19 196.02 22.23 201.46 22.23C208.84 22.23 210.75 27.56 212.04 31.97L214.75 41.49C215.35 43.39 215.97 44.49 217.25 44.42C217.85 44.36 218.10 44.82 218.10 45.47H218.13ZM206.03 41.23C205.92 40.43 205.30 39.08 204.82 37.44C204.43 36.20 203.02 35.63 201.20 35.63C197.79 35.63 195.79 37.44 195.79 40.14C195.79 43.01 197.88 45.16 201.10 45.16C204.01 45.16 206.36 43.33 206.03 41.23Z" fill="#FFFFFF"/>
  <path d="M259.71 22.67C261.66 22.67 262.39 23.06 262.39 24.27C262.39 26.63 260.03 25.64 258.04 30.07L250.86 47.13C250.51 47.89 250.18 48.62 247.49 49.04C245.25 49.41 244.59 49.14 244.11 48.05L238.85 33.88L233.87 47.13C233.55 47.89 232.59 48.62 230.95 49.04C228.35 49.66 227.52 49.14 227.07 48.05H227.06L220.01 30.13C218.06 25.64 215.78 26.63 215.78 24.23C215.78 22.98 216.51 22.67 218.14 22.67H227.75C229.29 22.67 230.35 23.06 230.35 24.27C230.35 26.63 227.62 25.64 229.28 30.13L232.98 39.37L238.42 24.72C238.74 23.96 239.10 23.23 240.74 22.85C242.98 22.31 243.61 22.82 244.06 23.91L250.15 39.41L254.10 30.07C255.86 25.64 252.99 26.63 252.99 24.20C252.99 22.95 253.68 22.67 255.18 22.67H259.74H259.71Z" fill="#FFFFFF"/>
</svg>