<svg fill="#ffffff" role="img" viewBox="0 0 60 60" xmlns="http://www.w3.org/2000/svg" preserveAspectRatio="xMidYMid meet">
  <title>NASA</title>
  <path d="M10.86 33.995c.188.703.488.975 1.018.975.55 0 .838-.33.838-.975V22.01h3.448v11.985c0 1.688-.22 2.42-1.075 3.275-.618.62-1.758 1.098-3.195 1.098-1.16 0-2.273-.385-2.98-1.095-.623-.625-.965-1.263-1.498-3.278l-2.115-7.99c-.185-.703-.485-.975-1.015-.975-.55 0-.84.33-.84.975v11.985H0V22.01c0-1.688.22-2.42 1.075-3.275.618-.62 1.758-1.098 3.195-1.098 1.16 0 2.273.385 2.98 1.095.623.625.963 1.263 1.498 3.278M56.438 37.99l-3.978-12.45a1.038 1.038 0 00-.15-.33.565.565 0 00-.465-.205.565.565 0 00-.463.205c-.075.093-.128.2-.15.33l-3.978 12.45h-3.563l4.348-13.6c.225-.708.55-1.31.96-1.71.705-.688 1.535-1.048 2.845-1.048 1.313 0 2.143.36 2.848 1.05.41.4.735 1 .96 1.708L60 37.99h-3.563zM38.828 37.99c2.258 0 3.36-.48 4.23-1.345.963-.958 1.423-2.005 1.423-3.568 0-1.383-.505-2.66-1.275-3.425-1.008-1-2.258-1.318-4.298-1.318h-2.855c-1.09 0-1.525-.133-1.87-.47-.235-.233-.348-.575-.348-.983 0-.42.1-.835.39-1.12.258-.25.608-.368 1.278-.368h8.253V22.01h-7.623c-2.258 0-3.358.48-4.228 1.345-.963.958-1.425 2.005-1.425 3.568 0 1.383.508 2.66 1.275 3.425 1.01 1 2.26 1.318 4.3 1.318h2.853c1.093 0 1.525.133 1.87.47.238.233.35.575.35.983 0 .423-.103.838-.393 1.12-.255.25-.605.368-1.275.368h-8.513l-3.265-10.215c-.225-.708-.55-1.31-.96-1.71-.705-.688-1.538-1.048-2.848-1.048s-2.143.36-2.845 1.05c-.413.4-.735 1-.963 1.708l-4.345 13.6h3.56l3.98-12.45c.023-.13.075-.237.15-.33a.565.565 0 01.463-.205c.205 0 .355.07.465.205.075.093.128.2.15.33l3.978 12.45h10.36z"/>
</svg>