<?xml version="1.0" encoding="UTF-8"?>
<svg id="Layer_1" data-name="Layer 1" xmlns="http://www.w3.org/2000/svg" viewBox="0 0 2463.24 1717.88">
  <defs>
    <style>
      .cls-1 {
        fill: #fff;
        fill-rule: evenodd;
      }
    </style>
  </defs>
  <g>
    <path class="cls-1" d="M610.46,1717.88l484.72-1.75,120.9-225.12,131.23,225.12h767.52l162.04-290.42h-756.55l-157.92-286.92h391.78l-225.61-392.58-370.17,679.5h-379.22L212.64,452.46,36.76,741.3l573.7,976.58Z"/>
    <path class="cls-1" d="M231.86,420.1h346.34l389.24,663.3,354.44-664.09,410.38.79,571.77,954.67,159.22-284.05L1875.25,111.73h-507.6l-288.2,548.91L753.12,111.73h-339.19l-182.07,308.37Z"/>
  </g>
  <g>
    <path class="cls-1" d="M573.7,1606.15l484.72-1.75,120.9-225.12,131.23,225.12h767.52l162.04-290.42h-756.55l-157.92-286.92h391.78l-225.61-392.58-370.17,679.5h-379.22L175.88,340.73,0,629.57l573.7,976.58Z"/>
    <path class="cls-1" d="M195.1,308.37h346.34l389.24,663.3,354.44-664.09,410.38.79,571.77,954.67,159.22-284.05L1838.49,0h-507.6l-288.2,548.91L716.36,0h-339.19l-182.07,308.37Z"/>
  </g>
</svg>