<?xml version="1.0" encoding="UTF-8"?>
<svg id="Layer_2" data-name="Layer 2" xmlns="http://www.w3.org/2000/svg" viewBox="0 0 94.14 64.11">
  <defs>
    <style>
      .cls-1 {
        fill: #fff;
      }
    </style>
  </defs>
  <g id="Layer_1-2" data-name="Layer 1">
    <path class="cls-1" d="M82.82,9.42c-.18-.15-.36-.3-.56-.44-4.38-3.51-9.76-6.17-15.73-7.64C63.06.47,59.4,0,55.6,0H15.14c-1.29,0-2.47.75-3.01,1.92L.31,27.33c-1.02,2.2.58,4.73,3.01,4.73h14.05l7.46-16.02h0s30.74,0,30.74,0c10.57.03,19.2,7.23,19.2,16.02s-8.67,16.03-19.27,16.03h-26.33s5.17-11.1,5.17-11.1c1.07-2.3-.61-4.93-3.14-4.93h-13.84l-12.62,27.13c-1.07,2.3.61,4.93,3.14,4.93h48.71c-4.57,0-1.22,0,0,0,20.72-.12,37.53-14.7,37.53-32.05,0-8.81-4.34-16.82-11.32-22.64Z"/>
  </g>
</svg>