<?xml version="1.0" encoding="UTF-8"?>
<svg id="Layer_2" data-name="Layer 2" xmlns="http://www.w3.org/2000/svg" viewBox="0 0 98.56 64.12">
  <defs>
    <style>
      .cls-1 {
        fill: #231f20;
      }
    </style>
  </defs>
  <g id="Layer_1-2" data-name="Layer 1">
    <path class="cls-1" d="M87.24,9.42c-.18-.15-.36-.3-.56-.44-4.38-3.51-9.76-6.17-15.73-7.64C67.48.47,63.82,0,60.02,0H18.74c-2.34,0-4.46,1.35-5.45,3.47L0,32.05h21.8l7.46-16.02h2.93s29.34,0,29.34,0c10.57.03,18.77,7.23,18.77,16.02s-7.2,16.03-17.8,16.03h-26.93s7.46-16.03,7.46-16.03h-21.23s-12.62,27.12-12.62,27.12c-1.07,2.3.61,4.93,3.14,4.93h48.71s.84,0,.84,0c-4.57,0-1.22,0,0,0,20.72-.12,36.68-14.71,36.68-32.06,0-8.81-4.34-16.82-11.32-22.64Z"/>
  </g>
</svg>